<svg width="250" height="250" viewBox="0 0 250 250" fill="none" xmlns="http://www.w3.org/2000/svg">
<circle cx="125" cy="125" r="125" fill="black"/>
<path d="M195 125C195 86.3401 163.66 55 125 55" stroke="#1DB954" stroke-width="6" stroke-linecap="round"/>
<path d="M210 125C210 78.0558 171.944 40 125 40" stroke="#1DB954" stroke-width="6" stroke-linecap="round"/>
<path d="M225 125C225 69.7715 180.228 25 125 25" stroke="#1DB954" stroke-width="6" stroke-linecap="round"/>
<circle cx="125" cy="125" r="50" stroke="#1DB954" stroke-width="5"/>
<path d="M120 122.5V125H125V122.5H120ZM125 87.5C125 86.1193 123.881 85 122.5 85C121.119 85 120 86.1193 120 87.5H125ZM125 122.5V87.5H120V122.5H125Z" fill="#1DB954"/>
<path d="M127.5 120H125V125H127.5V120ZM142.5 125C143.881 125 145 123.881 145 122.5C145 121.119 143.881 120 142.5 120V125ZM127.5 125H142.5V120H127.5V125Z" fill="#1DB954"/>
</svg>
