<svg width="177" height="37" viewBox="0 0 177 37" fill="none" xmlns="http://www.w3.org/2000/svg">
<path d="M11.8 29.36C9.74667 29.36 7.8 29.0933 5.96 28.56C4.14667 28 2.66667 27.2533 1.52 26.32C0.906667 25.8667 0.6 25.2267 0.6 24.4C0.6 23.84 0.76 23.36 1.08 22.96C1.42667 22.5333 1.82667 22.32 2.28 22.32C2.76 22.32 3.30667 22.5067 3.92 22.88C5.06667 23.7067 6.26667 24.3067 7.52 24.68C8.77333 25.0533 10.16 25.24 11.68 25.24C13.6267 25.24 15.12 24.9067 16.16 24.24C17.2 23.5467 17.72 22.5467 17.72 21.24C17.72 20.2267 17.2267 19.4533 16.24 18.92C15.28 18.36 13.6667 17.8267 11.4 17.32C9.05333 16.8133 7.14667 16.2267 5.68 15.56C4.21333 14.8933 3.10667 14.04 2.36 13C1.61333 11.96 1.24 10.64 1.24 9.04C1.24 7.38667 1.70667 5.90667 2.64 4.6C3.57333 3.29333 4.86667 2.28 6.52 1.56C8.2 0.813331 10.08 0.439998 12.16 0.439998C15.9733 0.439998 19.08 1.45333 21.48 3.48C21.8267 3.77333 22.0667 4.06667 22.2 4.36C22.36 4.62667 22.44 4.97333 22.44 5.4C22.44 5.96 22.2667 6.45333 21.92 6.88C21.6 7.28 21.2133 7.48 20.76 7.48C20.4933 7.48 20.24 7.44 20 7.36C19.7867 7.28 19.4933 7.13333 19.12 6.92C18.0267 6.12 16.96 5.53333 15.92 5.16C14.9067 4.76 13.6533 4.56 12.16 4.56C10.3467 4.56 8.90667 4.93333 7.84 5.68C6.8 6.4 6.28 7.41333 6.28 8.72C6.28 9.81333 6.74667 10.6533 7.68 11.24C8.61333 11.8267 10.2 12.3733 12.44 12.88C14.8133 13.4133 16.7333 14.0133 18.2 14.68C19.6933 15.32 20.8267 16.1467 21.6 17.16C22.4 18.1733 22.8 19.44 22.8 20.96C22.8 22.6133 22.3333 24.08 21.4 25.36C20.4933 26.6133 19.2 27.6 17.52 28.32C15.8667 29.0133 13.96 29.36 11.8 29.36ZM38.3478 8.96C40.0278 8.96 41.5211 9.38667 42.8278 10.24C44.1611 11.0933 45.1878 12.3067 45.9078 13.88C46.6545 15.4267 47.0278 17.2133 47.0278 19.24C47.0278 21.2667 46.6545 23.04 45.9078 24.56C45.1878 26.08 44.1745 27.2533 42.8678 28.08C41.5611 28.9067 40.0545 29.32 38.3478 29.32C36.9611 29.32 35.7211 29.0267 34.6278 28.44C33.5345 27.8533 32.6945 27.04 32.1078 26V34.16C32.1078 34.8533 31.8811 35.4 31.4278 35.8C30.9745 36.2 30.3745 36.4 29.6278 36.4C28.8811 36.4 28.2678 36.1867 27.7878 35.76C27.3345 35.3333 27.1078 34.7733 27.1078 34.08V11.4C27.1078 10.68 27.3211 10.1067 27.7478 9.68C28.2011 9.25333 28.8011 9.04 29.5478 9.04C30.2945 9.04 30.8945 9.25333 31.3478 9.68C31.8011 10.1067 32.0278 10.68 32.0278 11.4V12.4C32.6145 11.3067 33.4545 10.4667 34.5478 9.88C35.6678 9.26667 36.9345 8.96 38.3478 8.96ZM37.0278 25.44C38.6011 25.44 39.8278 24.9067 40.7078 23.84C41.5878 22.7467 42.0278 21.2133 42.0278 19.24C42.0278 17.2133 41.5878 15.64 40.7078 14.52C39.8278 13.4 38.6011 12.84 37.0278 12.84C35.4278 12.84 34.1878 13.3867 33.3078 14.48C32.4545 15.5733 32.0278 17.1333 32.0278 19.16C32.0278 21.16 32.4545 22.7067 33.3078 23.8C34.1878 24.8933 35.4278 25.44 37.0278 25.44ZM60.0513 29.32C58.0513 29.32 56.2913 28.9067 54.7713 28.08C53.2779 27.2533 52.1179 26.0667 51.2913 24.52C50.4646 22.9733 50.0513 21.1733 50.0513 19.12C50.0513 17.0667 50.4646 15.28 51.2913 13.76C52.1179 12.2133 53.2779 11.0267 54.7713 10.2C56.2913 9.37333 58.0513 8.96 60.0513 8.96C62.0513 8.96 63.7979 9.37333 65.2913 10.2C66.8113 11.0267 67.9713 12.2133 68.7713 13.76C69.5979 15.28 70.0113 17.0667 70.0113 19.12C70.0113 21.1733 69.5979 22.9733 68.7713 24.52C67.9713 26.0667 66.8113 27.2533 65.2913 28.08C63.7979 28.9067 62.0513 29.32 60.0513 29.32ZM60.0113 25.44C61.6379 25.44 62.8779 24.9067 63.7313 23.84C64.5846 22.7733 65.0113 21.2 65.0113 19.12C65.0113 17.0667 64.5846 15.5067 63.7313 14.44C62.8779 13.3467 61.6513 12.8 60.0513 12.8C58.4513 12.8 57.2113 13.3467 56.3313 14.44C55.4779 15.5067 55.0513 17.0667 55.0513 19.12C55.0513 21.2 55.4779 22.7733 56.3313 23.84C57.1846 24.9067 58.4113 25.44 60.0113 25.44ZM84.1819 25.52C85.5152 25.6 86.1819 26.2 86.1819 27.32C86.1819 27.96 85.9152 28.4533 85.3819 28.8C84.8752 29.12 84.1419 29.2533 83.1819 29.2L82.1019 29.12C77.6219 28.8 75.3819 26.4 75.3819 21.92V13.2H73.3819C72.6619 13.2 72.1019 13.04 71.7019 12.72C71.3285 12.4 71.1419 11.9333 71.1419 11.32C71.1419 10.7067 71.3285 10.24 71.7019 9.92C72.1019 9.6 72.6619 9.44 73.3819 9.44H75.3819V5.76C75.3819 5.04 75.6085 4.46667 76.0619 4.04C76.5152 3.61333 77.1285 3.4 77.9019 3.4C78.6485 3.4 79.2485 3.61333 79.7019 4.04C80.1552 4.46667 80.3819 5.04 80.3819 5.76V9.44H83.7819C84.5019 9.44 85.0485 9.6 85.4219 9.92C85.8219 10.24 86.0219 10.7067 86.0219 11.32C86.0219 11.9333 85.8219 12.4 85.4219 12.72C85.0485 13.04 84.5019 13.2 83.7819 13.2H80.3819V22.28C80.3819 24.2533 81.2885 25.3067 83.1019 25.44L84.1819 25.52ZM91.2675 29.24C90.5475 29.24 89.9475 29.04 89.4675 28.64C89.0142 28.2133 88.7875 27.6133 88.7875 26.84V11.4C88.7875 10.6267 89.0142 10.04 89.4675 9.64C89.9475 9.24 90.5475 9.04 91.2675 9.04C91.9875 9.04 92.5875 9.24 93.0675 9.64C93.5475 10.04 93.7875 10.6267 93.7875 11.4V26.84C93.7875 27.6133 93.5475 28.2133 93.0675 28.64C92.5875 29.04 91.9875 29.24 91.2675 29.24ZM91.2675 5.48C90.3608 5.48 89.6408 5.24 89.1075 4.76C88.5742 4.25333 88.3075 3.6 88.3075 2.8C88.3075 2 88.5742 1.36 89.1075 0.88C89.6408 0.399999 90.3608 0.159999 91.2675 0.159999C92.1475 0.159999 92.8542 0.399999 93.3875 0.88C93.9475 1.36 94.2275 2 94.2275 2.8C94.2275 3.6 93.9608 4.25333 93.4275 4.76C92.8942 5.24 92.1742 5.48 91.2675 5.48ZM109.963 25.52C111.296 25.6 111.963 26.2 111.963 27.32C111.963 27.96 111.696 28.4533 111.163 28.8C110.656 29.12 109.923 29.2533 108.963 29.2L107.883 29.12C103.403 28.8 101.163 26.4 101.163 21.92V13.2H99.1631C98.4431 13.2 97.8831 13.04 97.4831 12.72C97.1098 12.4 96.9231 11.9333 96.9231 11.32C96.9231 10.7067 97.1098 10.24 97.4831 9.92C97.8831 9.6 98.4431 9.44 99.1631 9.44H101.163V5.76C101.163 5.04 101.39 4.46667 101.843 4.04C102.296 3.61333 102.91 3.4 103.683 3.4C104.43 3.4 105.03 3.61333 105.483 4.04C105.936 4.46667 106.163 5.04 106.163 5.76V9.44H109.563C110.283 9.44 110.83 9.6 111.203 9.92C111.603 10.24 111.803 10.7067 111.803 11.32C111.803 11.9333 111.603 12.4 111.203 12.72C110.83 13.04 110.283 13.2 109.563 13.2H106.163V22.28C106.163 24.2533 107.07 25.3067 108.883 25.44L109.963 25.52ZM117.049 29.24C116.329 29.24 115.729 29.04 115.249 28.64C114.795 28.2133 114.569 27.6133 114.569 26.84V11.4C114.569 10.6267 114.795 10.04 115.249 9.64C115.729 9.24 116.329 9.04 117.049 9.04C117.769 9.04 118.369 9.24 118.849 9.64C119.329 10.04 119.569 10.6267 119.569 11.4V26.84C119.569 27.6133 119.329 28.2133 118.849 28.64C118.369 29.04 117.769 29.24 117.049 29.24ZM117.049 5.48C116.142 5.48 115.422 5.24 114.889 4.76C114.355 4.25333 114.089 3.6 114.089 2.8C114.089 2 114.355 1.36 114.889 0.88C115.422 0.399999 116.142 0.159999 117.049 0.159999C117.929 0.159999 118.635 0.399999 119.169 0.88C119.729 1.36 120.009 2 120.009 2.8C120.009 3.6 119.742 4.25333 119.209 4.76C118.675 5.24 117.955 5.48 117.049 5.48ZM147.965 8.96C150.098 8.96 151.725 9.6 152.845 10.88C153.992 12.1333 154.565 14.1733 154.565 17V26.84C154.565 27.6133 154.325 28.2133 153.845 28.64C153.392 29.04 152.792 29.24 152.045 29.24C151.325 29.24 150.725 29.04 150.245 28.64C149.792 28.2133 149.565 27.6133 149.565 26.84V17C149.565 15.5333 149.298 14.4933 148.765 13.88C148.258 13.24 147.472 12.92 146.405 12.92C145.098 12.92 144.058 13.3733 143.285 14.28C142.512 15.16 142.125 16.3733 142.125 17.92V26.84C142.125 27.6133 141.885 28.2133 141.405 28.64C140.952 29.04 140.365 29.24 139.645 29.24C138.925 29.24 138.325 29.04 137.845 28.64C137.365 28.2133 137.125 27.6133 137.125 26.84V17C137.125 15.5333 136.858 14.4933 136.325 13.88C135.818 13.24 135.032 12.92 133.965 12.92C132.658 12.92 131.618 13.3733 130.845 14.28C130.098 15.16 129.725 16.3733 129.725 17.92V26.84C129.725 27.6133 129.485 28.2133 129.005 28.64C128.525 29.04 127.925 29.24 127.205 29.24C126.485 29.24 125.885 29.04 125.405 28.64C124.952 28.2133 124.725 27.6133 124.725 26.84V11.36C124.725 10.6133 124.965 10.04 125.445 9.64C125.925 9.24 126.525 9.04 127.245 9.04C127.938 9.04 128.498 9.24 128.925 9.64C129.378 10.0133 129.605 10.56 129.605 11.28V12.24C130.218 11.1733 131.032 10.36 132.045 9.8C133.085 9.24 134.272 8.96 135.605 8.96C138.538 8.96 140.498 10.1867 141.485 12.64C142.072 11.52 142.938 10.6267 144.085 9.96C145.232 9.29333 146.525 8.96 147.965 8.96ZM175.127 23.64C175.58 23.64 175.94 23.8133 176.207 24.16C176.5 24.5067 176.647 24.9733 176.647 25.56C176.647 26.3867 176.154 27.08 175.167 27.64C174.26 28.1467 173.234 28.56 172.087 28.88C170.94 29.1733 169.847 29.32 168.807 29.32C165.66 29.32 163.167 28.4133 161.327 26.6C159.487 24.7867 158.567 22.3067 158.567 19.16C158.567 17.16 158.967 15.3867 159.767 13.84C160.567 12.2933 161.687 11.0933 163.127 10.24C164.594 9.38667 166.247 8.96 168.087 8.96C169.847 8.96 171.38 9.34666 172.687 10.12C173.994 10.8933 175.007 11.9867 175.727 13.4C176.447 14.8133 176.807 16.48 176.807 18.4C176.807 19.5467 176.3 20.12 175.287 20.12H163.487C163.647 21.96 164.167 23.32 165.047 24.2C165.927 25.0533 167.207 25.48 168.887 25.48C169.74 25.48 170.487 25.3733 171.127 25.16C171.794 24.9467 172.54 24.6533 173.367 24.28C174.167 23.8533 174.754 23.64 175.127 23.64ZM168.207 12.48C166.847 12.48 165.754 12.9067 164.927 13.76C164.127 14.6133 163.647 15.84 163.487 17.44H172.527C172.474 15.8133 172.074 14.5867 171.327 13.76C170.58 12.9067 169.54 12.48 168.207 12.48Z" fill="black"/>
</svg>
