<svg width="176" height="37" viewBox="0 0 176 37" fill="none" xmlns="http://www.w3.org/2000/svg">
<path d="M11.8 29.36C9.74667 29.36 7.8 29.0933 5.96 28.56C4.14667 28 2.66667 27.2533 1.52 26.32C0.906667 25.8667 0.6 25.2267 0.6 24.4C0.6 23.84 0.76 23.36 1.08 22.96C1.42667 22.5333 1.82667 22.32 2.28 22.32C2.76 22.32 3.30667 22.5067 3.92 22.88C5.06667 23.7067 6.26667 24.3067 7.52 24.68C8.77333 25.0533 10.16 25.24 11.68 25.24C13.6267 25.24 15.12 24.9067 16.16 24.24C17.2 23.5467 17.72 22.5467 17.72 21.24C17.72 20.2267 17.2267 19.4533 16.24 18.92C15.28 18.36 13.6667 17.8267 11.4 17.32C9.05333 16.8133 7.14667 16.2267 5.68 15.56C4.21333 14.8933 3.10667 14.04 2.36 13C1.61333 11.96 1.24 10.64 1.24 9.04C1.24 7.38667 1.70667 5.90667 2.64 4.6C3.57333 3.29333 4.86667 2.28 6.52 1.56C8.2 0.813331 10.08 0.439998 12.16 0.439998C15.9733 0.439998 19.08 1.45333 21.48 3.48C21.8267 3.77333 22.0667 4.06667 22.2 4.36C22.36 4.62667 22.44 4.97333 22.44 5.4C22.44 5.96 22.2667 6.45333 21.92 6.88C21.6 7.28 21.2133 7.48 20.76 7.48C20.4933 7.48 20.24 7.44 20 7.36C19.7867 7.28 19.4933 7.13333 19.12 6.92C18.0267 6.12 16.96 5.53333 15.92 5.16C14.9067 4.76 13.6533 4.56 12.16 4.56C10.3467 4.56 8.90667 4.93333 7.84 5.68C6.8 6.4 6.28 7.41333 6.28 8.72C6.28 9.81333 6.74667 10.6533 7.68 11.24C8.61333 11.8267 10.2 12.3733 12.44 12.88C14.8133 13.4133 16.7333 14.0133 18.2 14.68C19.6933 15.32 20.8267 16.1467 21.6 17.16C22.4 18.1733 22.8 19.44 22.8 20.96C22.8 22.6133 22.3333 24.08 21.4 25.36C20.4933 26.6133 19.2 27.6 17.52 28.32C15.8667 29.0133 13.96 29.36 11.8 29.36ZM38.3478 8.96C40.0278 8.96 41.5211 9.38667 42.8278 10.24C44.1611 11.0933 45.1878 12.3067 45.9078 13.88C46.6545 15.4267 47.0278 17.2133 47.0278 19.24C47.0278 21.2667 46.6545 23.04 45.9078 24.56C45.1878 26.08 44.1745 27.2533 42.8678 28.08C41.5611 28.9067 40.0545 29.32 38.3478 29.32C36.9611 29.32 35.7211 29.0267 34.6278 28.44C33.5345 27.8533 32.6945 27.04 32.1078 26V34.16C32.1078 34.8533 31.8811 35.4 31.4278 35.8C30.9745 36.2 30.3745 36.4 29.6278 36.4C28.8811 36.4 28.2678 36.1867 27.7878 35.76C27.3345 35.3333 27.1078 34.7733 27.1078 34.08V11.4C27.1078 10.68 27.3211 10.1067 27.7478 9.68C28.2011 9.25333 28.8011 9.04 29.5478 9.04C30.2945 9.04 30.8945 9.25333 31.3478 9.68C31.8011 10.1067 32.0278 10.68 32.0278 11.4V12.4C32.6145 11.3067 33.4545 10.4667 34.5478 9.88C35.6678 9.26667 36.9345 8.96 38.3478 8.96ZM37.0278 25.44C38.6011 25.44 39.8278 24.9067 40.7078 23.84C41.5878 22.7467 42.0278 21.2133 42.0278 19.24C42.0278 17.2133 41.5878 15.64 40.7078 14.52C39.8278 13.4 38.6011 12.84 37.0278 12.84C35.4278 12.84 34.1878 13.3867 33.3078 14.48C32.4545 15.5733 32.0278 17.1333 32.0278 19.16C32.0278 21.16 32.4545 22.7067 33.3078 23.8C34.1878 24.8933 35.4278 25.44 37.0278 25.44ZM60.0513 29.32C58.0513 29.32 56.2913 28.9067 54.7713 28.08C53.2779 27.2533 52.1179 26.0667 51.2913 24.52C50.4646 22.9733 50.0513 21.1733 50.0513 19.12C50.0513 17.0667 50.4646 15.28 51.2913 13.76C52.1179 12.2133 53.2779 11.0267 54.7713 10.2C56.2913 9.37333 58.0513 8.96 60.0513 8.96C62.0513 8.96 63.7979 9.37333 65.2913 10.2C66.8113 11.0267 67.9713 12.2133 68.7713 13.76C69.5979 15.28 70.0113 17.0667 70.0113 19.12C70.0113 21.1733 69.5979 22.9733 68.7713 24.52C67.9713 26.0667 66.8113 27.2533 65.2913 28.08C63.7979 28.9067 62.0513 29.32 60.0513 29.32ZM60.0113 25.44C61.6379 25.44 62.8779 24.9067 63.7313 23.84C64.5846 22.7733 65.0113 21.2 65.0113 19.12C65.0113 17.0667 64.5846 15.5067 63.7313 14.44C62.8779 13.3467 61.6513 12.8 60.0513 12.8C58.4513 12.8 57.2113 13.3467 56.3313 14.44C55.4779 15.5067 55.0513 17.0667 55.0513 19.12C55.0513 21.2 55.4779 22.7733 56.3313 23.84C57.1846 24.9067 58.4113 25.44 60.0113 25.44ZM84.1819 25.52C85.5152 25.6 86.1819 26.2 86.1819 27.32C86.1819 27.96 85.9152 28.4533 85.3819 28.8C84.8752 29.12 84.1419 29.2533 83.1819 29.2L82.1019 29.12C77.6219 28.8 75.3819 26.4 75.3819 21.92V13.2H73.3819C72.6619 13.2 72.1019 13.04 71.7019 12.72C71.3285 12.4 71.1419 11.9333 71.1419 11.32C71.1419 10.7067 71.3285 10.24 71.7019 9.92C72.1019 9.6 72.6619 9.44 73.3819 9.44H75.3819V5.76C75.3819 5.04 75.6085 4.46667 76.0619 4.04C76.5152 3.61333 77.1285 3.4 77.9019 3.4C78.6485 3.4 79.2485 3.61333 79.7019 4.04C80.1552 4.46667 80.3819 5.04 80.3819 5.76V9.44H83.7819C84.5019 9.44 85.0485 9.6 85.4219 9.92C85.8219 10.24 86.0219 10.7067 86.0219 11.32C86.0219 11.9333 85.8219 12.4 85.4219 12.72C85.0485 13.04 84.5019 13.2 83.7819 13.2H80.3819V22.28C80.3819 24.2533 81.2885 25.3067 83.1019 25.44L84.1819 25.52ZM91.2675 29.24C90.5475 29.24 89.9475 29.04 89.4675 28.64C89.0142 28.2133 88.7875 27.6133 88.7875 26.84V11.4C88.7875 10.6267 89.0142 10.04 89.4675 9.64C89.9475 9.24 90.5475 9.04 91.2675 9.04C91.9875 9.04 92.5875 9.24 93.0675 9.64C93.5475 10.04 93.7875 10.6267 93.7875 11.4V26.84C93.7875 27.6133 93.5475 28.2133 93.0675 28.64C92.5875 29.04 91.9875 29.24 91.2675 29.24ZM91.2675 5.48C90.3608 5.48 89.6408 5.24 89.1075 4.76C88.5742 4.25333 88.3075 3.6 88.3075 2.8C88.3075 2 88.5742 1.36 89.1075 0.88C89.6408 0.399999 90.3608 0.159999 91.2675 0.159999C92.1475 0.159999 92.8542 0.399999 93.3875 0.88C93.9475 1.36 94.2275 2 94.2275 2.8C94.2275 3.6 93.9608 4.25333 93.4275 4.76C92.8942 5.24 92.1742 5.48 91.2675 5.48Z" fill="black"/>
<path d="M109.104 25.52C110.437 25.6 111.104 26.2 111.104 27.32C111.104 27.96 110.837 28.4533 110.304 28.8C109.797 29.12 109.064 29.2533 108.104 29.2L107.024 29.12C102.544 28.8 100.304 26.4 100.304 21.92V13.2H98.3038C97.5838 13.2 97.0238 13.04 96.6238 12.72C96.2504 12.4 96.0637 11.9333 96.0637 11.32C96.0637 10.7067 96.2504 10.24 96.6238 9.92C97.0238 9.6 97.5838 9.44 98.3038 9.44H100.304V5.76C100.304 5.04 100.53 4.46667 100.984 4.04C101.437 3.61333 102.05 3.4 102.824 3.4C103.57 3.4 104.17 3.61333 104.624 4.04C105.077 4.46667 105.304 5.04 105.304 5.76V9.44H108.704C109.424 9.44 109.97 9.6 110.344 9.92C110.744 10.24 110.944 10.7067 110.944 11.32C110.944 11.9333 110.744 12.4 110.344 12.72C109.97 13.04 109.424 13.2 108.704 13.2H105.304V22.28C105.304 24.2533 106.21 25.3067 108.024 25.44L109.104 25.52ZM116.189 29.24C115.469 29.24 114.869 29.04 114.389 28.64C113.936 28.2133 113.709 27.6133 113.709 26.84V11.4C113.709 10.6267 113.936 10.04 114.389 9.64C114.869 9.24 115.469 9.04 116.189 9.04C116.909 9.04 117.509 9.24 117.989 9.64C118.469 10.04 118.709 10.6267 118.709 11.4V26.84C118.709 27.6133 118.469 28.2133 117.989 28.64C117.509 29.04 116.909 29.24 116.189 29.24ZM116.189 5.48C115.283 5.48 114.563 5.24 114.029 4.76C113.496 4.25333 113.229 3.6 113.229 2.8C113.229 2 113.496 1.36 114.029 0.88C114.563 0.399999 115.283 0.159999 116.189 0.159999C117.069 0.159999 117.776 0.399999 118.309 0.88C118.869 1.36 119.149 2 119.149 2.8C119.149 3.6 118.883 4.25333 118.349 4.76C117.816 5.24 117.096 5.48 116.189 5.48ZM147.106 8.96C149.239 8.96 150.866 9.6 151.986 10.88C153.132 12.1333 153.706 14.1733 153.706 17V26.84C153.706 27.6133 153.466 28.2133 152.986 28.64C152.532 29.04 151.932 29.24 151.186 29.24C150.466 29.24 149.866 29.04 149.386 28.64C148.932 28.2133 148.706 27.6133 148.706 26.84V17C148.706 15.5333 148.439 14.4933 147.906 13.88C147.399 13.24 146.612 12.92 145.546 12.92C144.239 12.92 143.199 13.3733 142.426 14.28C141.652 15.16 141.266 16.3733 141.266 17.92V26.84C141.266 27.6133 141.026 28.2133 140.546 28.64C140.092 29.04 139.506 29.24 138.786 29.24C138.066 29.24 137.466 29.04 136.986 28.64C136.506 28.2133 136.266 27.6133 136.266 26.84V17C136.266 15.5333 135.999 14.4933 135.466 13.88C134.959 13.24 134.172 12.92 133.106 12.92C131.799 12.92 130.759 13.3733 129.986 14.28C129.239 15.16 128.866 16.3733 128.866 17.92V26.84C128.866 27.6133 128.626 28.2133 128.146 28.64C127.666 29.04 127.066 29.24 126.346 29.24C125.626 29.24 125.026 29.04 124.546 28.64C124.092 28.2133 123.866 27.6133 123.866 26.84V11.36C123.866 10.6133 124.106 10.04 124.586 9.64C125.066 9.24 125.666 9.04 126.386 9.04C127.079 9.04 127.639 9.24 128.066 9.64C128.519 10.0133 128.746 10.56 128.746 11.28V12.24C129.359 11.1733 130.172 10.36 131.186 9.8C132.226 9.24 133.412 8.96 134.746 8.96C137.679 8.96 139.639 10.1867 140.626 12.64C141.212 11.52 142.079 10.6267 143.226 9.96C144.372 9.29333 145.666 8.96 147.106 8.96ZM174.268 23.64C174.721 23.64 175.081 23.8133 175.348 24.16C175.641 24.5067 175.788 24.9733 175.788 25.56C175.788 26.3867 175.294 27.08 174.308 27.64C173.401 28.1467 172.374 28.56 171.228 28.88C170.081 29.1733 168.988 29.32 167.947 29.32C164.801 29.32 162.308 28.4133 160.468 26.6C158.628 24.7867 157.708 22.3067 157.708 19.16C157.708 17.16 158.108 15.3867 158.908 13.84C159.708 12.2933 160.828 11.0933 162.268 10.24C163.734 9.38667 165.388 8.96 167.228 8.96C168.988 8.96 170.521 9.34666 171.828 10.12C173.134 10.8933 174.148 11.9867 174.868 13.4C175.588 14.8133 175.948 16.48 175.948 18.4C175.948 19.5467 175.441 20.12 174.428 20.12H162.628C162.788 21.96 163.308 23.32 164.188 24.2C165.068 25.0533 166.348 25.48 168.028 25.48C168.881 25.48 169.628 25.3733 170.268 25.16C170.934 24.9467 171.681 24.6533 172.508 24.28C173.308 23.8533 173.894 23.64 174.268 23.64ZM167.348 12.48C165.988 12.48 164.894 12.9067 164.068 13.76C163.268 14.6133 162.788 15.84 162.628 17.44H171.668C171.614 15.8133 171.214 14.5867 170.468 13.76C169.721 12.9067 168.681 12.48 167.348 12.48Z" fill="#1DB954"/>
</svg>
